<svg fill="currentColor" fill-rule="evenodd" height="24" viewBox="0 0 24 24" width="24" xmlns="http://www.w3.org/2000/svg"><title>together.ai</title><path d="M23.197 4.503C22.401 3.125 21.091 2.119 19.553 1.707C18.016 1.295 16.378 1.511 15 2.307C13.221 3.328 12.09 5.19 12.005 7.24L18.001 7.248L18.001 7.763L12.005 7.763C12.044 8.7 12.303 9.633 12.805 10.503C13.856 12.401 15.849 13.585 18.019 13.598C20.188 13.611 22.196 12.451 23.269 10.566C24.343 8.68 24.314 6.362 23.195 4.503Z"/><path d="M0.805 4.5C0.009 5.878 -0.207 7.516 0.205 9.053C0.616 10.59 1.622 11.901 3 12.697C4.774 13.728 6.953 13.776 8.77 12.824L5.779 7.627L6.225 7.37L9.222 12.562C11.323 11.224 12.379 8.728 11.876 6.289C11.373 3.85 9.415 1.975 6.957 1.577C4.498 1.18 2.05 2.343 0.804 4.5Z"/><path d="M12 23.894C15.313 23.893 17.999 21.207 17.999 17.894C17.999 15.764 16.899 13.898 15.224 12.834L12.219 18.023L11.775 17.765L14.772 12.573C12.563 11.422 9.873 11.755 8.012 13.411C6.151 15.066 5.506 17.7 6.392 20.028C7.277 22.356 9.509 23.894 12 23.894Z"/></svg>
